<svg height="512pt" viewBox="-18 0 512 512" width="512pt" xmlns="http://www.w3.org/2000/svg"><path d="m344.199219 352.296875c-63.859375 0-115.816407-51.957031-115.816407-115.816406 0-63.863281 51.957032-115.820313 115.816407-115.820313 63.863281 0 115.820312 51.957032 115.820312 115.820313 0 63.859375-51.957031 115.816406-115.820312 115.816406zm0-211.636719c-52.832031 0-95.816407 42.984375-95.816407 95.816406 0 52.835938 42.984376 95.820313 95.816407 95.820313 52.835937 0 95.820312-42.984375 95.820312-95.820313 0-52.832031-42.984375-95.816406-95.820312-95.816406zm0 0"/><path d="m344.199219 314.675781c-43.117188 0-78.195313-35.078125-78.195313-78.199219 0-43.117187 35.078125-78.195312 78.195313-78.195312 43.117187 0 78.199219 35.078125 78.199219 78.195312 0 43.121094-35.078126 78.199219-78.199219 78.199219zm0-136.394531c-32.089844 0-58.195313 26.105469-58.195313 58.195312 0 32.089844 26.105469 58.199219 58.195313 58.199219 32.089843 0 58.199219-26.109375 58.199219-58.199219 0-32.089843-26.109376-58.195312-58.199219-58.195312zm0 0"/><path d="m342.644531 271.261719c-12-.402344-21.800781-6.601563-21.800781-13 0-3.402344 3-8.402344 6.796875-8.402344 4.203125 0 7.601563 5.902344 15.003906 7.203125v-16.203125c-9.203125-3.5-20.003906-7.800781-20.003906-20.601563 0-12.699218 9.402344-18.800781 20.003906-20.300781v-2.800781c0-1.398438 1.597657-2.699219 3.800781-2.699219 1.898438 0 3.796876 1.300781 3.796876 2.699219v2.5c6.203124.203125 17.902343 1.800781 17.902343 8.703125 0 2.699219-1.800781 8.199219-6.199219 8.199219-3.300781 0-5.199218-3.199219-11.703124-3.699219v14.601563c9.101562 3.398437 19.703124 8.101562 19.703124 21.601562 0 12.402344-8 19.902344-19.703124 21.800781v2.902344c0 1.398437-1.898438 2.699219-3.796876 2.699219-2.203124 0-3.800781-1.300782-3.800781-2.699219zm1-46.203125v-11.902344c-4.5.902344-6.402343 3.203125-6.402343 5.601562 0 2.898438 2.601562 4.699219 6.402343 6.300782zm5.597657 18.5v13.402344c3.402343-.800782 6.101562-2.699219 6.101562-6.300782 0-3.300781-2.5-5.398437-6.101562-7.101562zm0 0"/><path d="m150.070312 443.101562c-.648437 0-1.308593-.0625-1.949218-.191406s-1.269532-.320312-1.871094-.570312c-.597656-.25-1.179688-.558594-1.730469-.917969-.539062-.371094-1.058593-.78125-1.519531-1.25-1.859375-1.863281-2.929688-4.433594-2.929688-7.070313 0-2.632812 1.070313-5.210937 2.929688-7.070312.460938-.460938.980469-.882812 1.519531-1.242188.550781-.359374 1.132813-.667968 1.730469-.917968.601562-.25 1.230469-.441406 1.871094-.570313 1.289062-.261719 2.621094-.261719 3.910156 0 .628906.128907 1.257812.320313 1.871094.570313.597656.25 1.179687.558594 1.71875.917968.550781.359376 1.058594.78125 1.519531 1.242188 1.871094 1.859375 2.929687 4.4375 2.929687 7.070312 0 2.636719-1.058593 5.207032-2.929687 7.070313-.460937.46875-.96875.878906-1.519531 1.25-.539063.359375-1.121094.667969-1.71875.917969-.613282.25-1.242188.441406-1.871094.570312-.648438.128906-1.308594.191406-1.960938.191406zm0 0"/><path d="m471.105469 361.652344c-11.171875-19.453125-36.117188-26.226563-55.75-15.210938l-73.792969 35.832032c-6.625-15.9375-22.351562-27.171876-40.65625-27.171876h-80.121094c-13.894531-19.65625-36.769531-31.652343-61.007812-31.652343-.855469 0-1.703125.015625-2.542969.042969-30.550781 1.027343-56.863281 22.019531-65.414063 51.613281h-3.621093v-6.0625c0-5.523438-4.480469-10-10-10h-59.335938c-5.519531 0-10 4.476562-10 10v121.332031c0 5.523438 4.480469 10 10 10h59.332031c5.523438 0 10-4.476562 10-10v-7.351562c38.28125 7.246093 156.40625 28.976562 196.445313 28.976562 21.597656 0 56.316406-15.726562 106.148437-48.085938 35.722657-23.195312 66.121094-46.722656 66.425782-46.957031.328125-.257812.644531-.53125.941406-.828125 17.570312-17.570312 22.414062-37.929687 12.949219-54.476562zm-402.910157 118.722656h-39.332031v-101.332031h39.332031zm376.246094-78.820312c-33.035156 25.550781-124.578125 90.445312-159.800781 90.445312-39.195313 0-163.460937-23.082031-196.441406-29.339844v-67.558594h11.488281c4.675781 0 8.726562-3.242187 9.753906-7.800781l.800782-3.546875c5.160156-22.941406 24.761718-39.503906 47.667968-40.273437.617188-.019531 1.242188-.03125 1.867188-.03125 19.171875 0 37.179687 10.253906 46.992187 26.765625 1.804688 3.03125 5.070313 4.886718 8.597657 4.886718h85.539062c13.234375 0 24 10.769532 24 24.003907s-10.765625 24-24 24h-113.496094c-5.523437 0-10 4.476562-10 10 0 5.523437 4.476563 10 10 10h113.496094c22.960938 0 41.871094-17.679688 43.832031-40.140625l79.636719-38.667969c.203125-.097656.40625-.203125.601562-.316406 10.125-5.796875 23.039063-2.371094 28.777344 7.621093 6.601563 11.535157-3.964844 24.488282-9.3125 29.953126zm0 0"/><path d="m115.816406 231.636719c-63.863281 0-115.816406-51.957031-115.816406-115.820313 0-63.859375 51.953125-115.816406 115.816406-115.816406 63.863282 0 115.820313 51.957031 115.820313 115.816406 0 63.863282-51.957031 115.820313-115.820313 115.820313zm0-211.636719c-52.832031 0-95.816406 42.984375-95.816406 95.816406 0 52.835938 42.980469 95.816406 95.816406 95.816406 52.832032 0 95.816406-42.980468 95.816406-95.816406 0-52.832031-42.980468-95.816406-95.816406-95.816406zm0 0"/><path d="m115.816406 194.015625c-43.117187 0-78.195312-35.082031-78.195312-78.199219 0-43.117187 35.078125-78.199218 78.195312-78.199218 43.121094 0 78.199219 35.082031 78.199219 78.199218 0 43.121094-35.078125 78.199219-78.199219 78.199219zm0-136.394531c-32.089844 0-58.195312 26.105468-58.195312 58.195312 0 32.09375 26.105468 58.199219 58.195312 58.199219s58.199219-26.105469 58.199219-58.199219c0-32.089844-26.109375-58.195312-58.199219-58.195312zm0 0"/><path d="m137.832031 142.753906c0 3.398438-1.5 6.800782-4.5 6.800782h-42.402343c-3 0-4.5-3.402344-4.5-6.800782 0-3.402344 1.5-6.800781 4.5-6.800781h5l3.199218-23.003906h-4.699218c-2.5 0-3.800782-2.699219-3.800782-5.5 0-2.699219 1.300782-5.5 3.800782-5.5h6.300781l1-6.898438c1.898437-13.203125 13.902343-22.300781 26.902343-22.300781h4.199219c3.199219 0 5 3.398438 5 6.699219s-1.800781 6.800781-5 6.800781h-4.699219c-7.101562 0-10.203124 3.699219-10.902343 8.800781l-1 6.898438h10.703125c2.5 0 3.796875 2.800781 3.796875 5.5 0 2.800781-1.296875 5.5-3.796875 5.5h-12.300782l-3.304687 23.003906h22.003906c3 0 4.5 3.398437 4.5 6.800781zm0 0"/></svg>